<?xml version="1.0" encoding="UTF-8" standalone="no"?>
<svg
   width="96mm"
   height="32mm"
   viewBox="0 0 96 32"
   version="1.1"
   id="svg5724"
   shape-rendering="crispEdges"
   xmlns="http://www.w3.org/2000/svg"
   xmlns:svg="http://www.w3.org/2000/svg">
  <defs
     id="defs2" />
  <path
     id="bg1"
     d="M 12,0 V 1 H 9 v 1 h -2 V 3 H 6 V 4 H 5 V 5 H 4 V 6 H 3 V 7 H 2 v 2 H 1 V 12 H 0 v 8 h 1 v 3 h 1 v 2 h 1 v 1 H 4 v 1 H 5 V 28 H 6 v 1 h 1 v 1 h 2 v 1 H 12 V 32 H 48 V 0 Z m 2,4 h 4 v 20 h 8 V 16 H 25 V 15 H 24 V 14 H 23 V 13 H 22 V 12 H 21 V 11 H 20 V 4 h 4 v 4 h 1 v 1 h 1 V 10 h 1 v 1 h 2 v -1 h 1 V 9 h 1 V 8 H 32 V 4 h 14 v 4 h -8 v 6 h 8 v 14 h -12 v -4 h 8 v -6 h -8 v -5 h -1 v 1 H 32 v 1 h -1 v 1 H 30 V 28 H 14 Z"
     style="fill:#ff6600;stroke:none;stroke-width:0.015625;stroke-opacity:1" />
  <path
     id="bg2"
     d="m 48,0 v 32 h 36 v -1 h 3 v -1 h 2 v -1 h 1 V 28 h 1 v -1 h 1 v -1 h 1 V 25 h 1 v -2 h 1 v -3 h 1 V 12 H 95 V 9 h -1 v -2 h -1 V 6 H 92 V 5 H 91 V 4 H 90 V 3 h -1 V 2 H 87 V 1 H 84 V 0 Z m 2,4 c 1.333334,0 2.666667,0 4,0 0,8 0,16 0,24 -1.333333,0 -2.666666,0 -4,0 0,-8 0,-16 0,-24 z M 56,4 c 1.333333,0 2.666669,0 4,0 v 1 h 1 V 6 h 1 v 1 h 1 V 8 H 64 c 0,-1.3429734 0,-2.7615246 0,-4 1.35423,0 2.815127,0 4,0 0,8 0,16 0,24 -1.333331,0 -2.666667,0 -4,0 0,-4.333332 0,-8.666667 0,-13 h -1 v -1 h -1 v -1 h -1 V 12 H 60 c 0,5.40696 0,11.23249 0,16 -1.333331,0 -2.666667,0 -4,0 0,-8 0,-16 0,-24 z m 14,0 c 4,0 8,0 12,0 0,1.3333333 0,2.6666669 0,4 -2.666666,0 -5.333333,0 -8,0 0,2 0,4 0,6 1.333334,0 2.666667,0 4,0 0,1.333334 0,2.666667 0,4 -1.333333,0 -2.666666,0 -4,0 0,2 0,4 0,6 2.666667,0 5.333334,0 8,0 0,1.333333 0,2.666667 0,4 -4,0 -8,0 -12,0 0,-8 0,-16 0,-24 z"
     style="fill:#0000ff;stroke:none;stroke-width:0.015625;stroke-opacity:1" />
  <path
     id="lys"
     d="M 14,4 V 28 H 30 V 16 h 1 V 15 H 32 v -1 h 1 v -1 h 1 v 5 h 8 v 6 h -8 v 4 h 12 V 14 h -8 V 8 h 8 V 4 H 32 V 8 H 31 V 9 H 30 V 10 h -1 v 1 H 27 V 10 H 26 V 9 H 25 V 8 H 24 V 4 h -4 v 7 h 1 v 1 h 1 v 1 h 1 v 1 h 1 v 1 h 1 v 1 h 1 v 8 H 18 V 4 c -1.333333,0 -2.666666,0 -4,0 z"
     style="fill:#0000ff;stroke:none;stroke-width:0.015625;stroke-opacity:1" />
  <path
     id="i"
     d="m 50,4 c 0,8 0,16 0,24 1.333334,0 2.666667,0 4,0 0,-8 0,-16 0,-24 -1.333333,0 -2.666666,0 -4,0 z"
     style="fill:#ff6600;stroke:none;stroke-width:0.015625;stroke-opacity:1" />
  <path
     id="n"
     d="m 56,4 c 0,8 0,16 0,24 1.333333,0 2.666669,0 4,0 0,-5.964403 0,-10.410867 0,-16 h 1 v 1 h 1 v 1 h 1 v 1 H 64 c 0,4.333333 0,8.666668 0,13 1.333333,0 2.666669,0 4,0 0,-8.102197 0,-15.620285 0,-24 -1.333331,0 -2.666667,0 -4,0 0,1.3333333 0,2.6666669 0,4 H 63 V 7 H 62 V 6 h -1 V 5 H 60 V 4 c -1.333331,0 -2.666667,0 -4,0 z"
     style="fill:#ff6600;stroke:none;stroke-width:0.015625;stroke-opacity:1" />
  <path
     id="e"
     d="m 70,4 c 0,8 0,16 0,24 4,0 8,0 12,0 0,-1 0,-2 0,-3 v -1 c -2.666666,0 -5.333333,0 -8,0 0,-2 0,-4 0,-6 1.333334,0 2.666667,0 4,0 0,-1.333333 0,-2.666666 0,-4 -1.333333,0 -2.666666,0 -4,0 0,-2 0,-4 0,-6 2.666667,0 5.333334,0 8,0 0,-1.3333331 0,-2.6666667 0,-4 -4,0 -8,0 -12,0 z"
     style="fill:#ff6600;stroke:none;stroke-width:0.015625;stroke-opacity:1" />
</svg>
