<?xml version="1.0" encoding="UTF-8"?><svg viewBox="0 0 40 16" xmlns="http://www.w3.org/2000/svg"><path d="M6.6 3.1h1.6v8.4h2.5v1.4h-4Zm5 5.6L9.7 3.1h1.7l1 3.6 1-3.6H15l-2 5.6V13h-1.5zm5.8 4.3q-1 0-1.7-.6-.5-.7-.5-1.8V10h1.4v.7q0 1 .8 1 .4 0 .6-.3t.2-.8-.3-1l-1-1.2q-1-.8-1.3-1.5t-.4-1.5q0-1.1.6-1.8t1.7-.6q1 0 1.6.6t.6 1.8v.4h-1.4v-.5q0-.5-.2-.7t-.6-.2q-.8 0-.8 1 0 .4.3 1l1 1q1 .8 1.4 1.5t.3 1.6q0 1.2-.6 1.9t-1.7.6" fill="#f60"/><path d="M20.6 3.1h1.5V13h-1.5zm2.7 0h1.9L26.7 9V3h1.4v10h-1.6l-1.8-7.1v7h-1.4zm5.9 0h4.2v1.4h-2.7v2.6h2.1v1.4h-2v3h2.6v1.4h-4.2z" fill="#00f"/><path d="M8 0a8 8 0 0 0 0 16h12v-1H8A7 7 0 1 1 8 1h12V0z" color="#000" fill="#f60"/><path d="M20 0v1h12a7 7 0 1 1 0 14H20v1h12a8 8 0 0 0 0-16z" color="#000" fill="#00f"/></svg>
